<svg width="173" height="40" viewBox="0 0 173 40" fill="none" xmlns="http://www.w3.org/2000/svg">
<path d="M34.1422 5.85781C30.3647 2.08031 25.3422 0 20 0C14.6578 0 9.63531 2.08031 5.85781 5.85781C2.08031 9.63531 0 14.6578 0 20C0 25.3422 2.08039 30.3646 5.85781 34.1422C9.63523 37.9198 14.6578 40 20 40C25.3422 40 30.3647 37.9197 34.1422 34.1422C37.9197 30.3647 40 25.3422 40 20C40 14.6578 37.9196 9.63539 34.1422 5.85781Z" fill="#33CC95"/>
<g clip-path="url(#clip0_6_4)">
<path d="M19.5714 8V33.1429" stroke="white" stroke-width="2" stroke-linecap="round" stroke-linejoin="round"/>
<path d="M25.2858 12.5714H16.7144C15.6535 12.5714 14.6361 12.9928 13.8859 13.743C13.1358 14.4931 12.7144 15.5105 12.7144 16.5714C12.7144 17.6323 13.1358 18.6497 13.8859 19.3998C14.6361 20.15 15.6535 20.5714 16.7144 20.5714H22.4286C23.4895 20.5714 24.5069 20.9928 25.2571 21.743C26.0072 22.4931 26.4286 23.5105 26.4286 24.5714C26.4286 25.6323 26.0072 26.6497 25.2571 27.3998C24.5069 28.15 23.4895 28.5714 22.4286 28.5714H12.7144" stroke="white" stroke-width="2" stroke-linecap="round" stroke-linejoin="round"/>
</g>
<path d="M56.616 23.84C56.616 22.5787 56.8507 21.4713 57.32 20.518C57.804 19.5647 58.4567 18.8313 59.278 18.318C60.0993 17.8047 61.016 17.548 62.028 17.548C62.8347 17.548 63.568 17.7167 64.228 18.054C64.9027 18.3913 65.4307 18.846 65.812 19.418V13.72H69.574V30H65.812V28.24C65.46 28.8267 64.954 29.296 64.294 29.648C63.6487 30 62.8933 30.176 62.028 30.176C61.016 30.176 60.0993 29.9193 59.278 29.406C58.4567 28.878 57.804 28.1373 57.32 27.184C56.8507 26.216 56.616 25.1013 56.616 23.84ZM65.812 23.862C65.812 22.9233 65.548 22.1827 65.02 21.64C64.5067 21.0973 63.876 20.826 63.128 20.826C62.38 20.826 61.742 21.0973 61.214 21.64C60.7007 22.168 60.444 22.9013 60.444 23.84C60.444 24.7787 60.7007 25.5267 61.214 26.084C61.742 26.6267 62.38 26.898 63.128 26.898C63.876 26.898 64.5067 26.6267 65.02 26.084C65.548 25.5413 65.812 24.8007 65.812 23.862ZM77.8836 30.176C76.681 30.176 75.5956 29.9193 74.6276 29.406C73.6743 28.8927 72.919 28.1593 72.3616 27.206C71.819 26.2527 71.5476 25.138 71.5476 23.862C71.5476 22.6007 71.8263 21.4933 72.3836 20.54C72.941 19.572 73.7036 18.8313 74.6716 18.318C75.6396 17.8047 76.725 17.548 77.9276 17.548C79.1303 17.548 80.2156 17.8047 81.1836 18.318C82.1516 18.8313 82.9143 19.572 83.4716 20.54C84.029 21.4933 84.3076 22.6007 84.3076 23.862C84.3076 25.1233 84.0216 26.238 83.4496 27.206C82.8923 28.1593 82.1223 28.8927 81.1396 29.406C80.1716 29.9193 79.0863 30.176 77.8836 30.176ZM77.8836 26.92C78.6023 26.92 79.211 26.656 79.7096 26.128C80.223 25.6 80.4796 24.8447 80.4796 23.862C80.4796 22.8793 80.2303 22.124 79.7316 21.596C79.2476 21.068 78.6463 20.804 77.9276 20.804C77.1943 20.804 76.5856 21.068 76.1016 21.596C75.6176 22.1093 75.3756 22.8647 75.3756 23.862C75.3756 24.8447 75.6103 25.6 76.0796 26.128C76.5636 26.656 77.165 26.92 77.8836 26.92ZM88.0635 30.176C87.4035 30.176 86.8608 29.9853 86.4355 29.604C86.0248 29.208 85.8195 28.724 85.8195 28.152C85.8195 27.5653 86.0248 27.074 86.4355 26.678C86.8608 26.282 87.4035 26.084 88.0635 26.084C88.7088 26.084 89.2368 26.282 89.6475 26.678C90.0728 27.074 90.2855 27.5653 90.2855 28.152C90.2855 28.724 90.0728 29.208 89.6475 29.604C89.2368 29.9853 88.7088 30.176 88.0635 30.176ZM108.176 17.592C109.702 17.592 110.912 18.054 111.806 18.978C112.716 19.902 113.17 21.1853 113.17 22.828V30H109.43V23.334C109.43 22.542 109.218 21.9333 108.792 21.508C108.382 21.068 107.81 20.848 107.076 20.848C106.343 20.848 105.764 21.068 105.338 21.508C104.928 21.9333 104.722 22.542 104.722 23.334V30H100.982V23.334C100.982 22.542 100.77 21.9333 100.344 21.508C99.9338 21.068 99.3618 20.848 98.6284 20.848C97.8951 20.848 97.3158 21.068 96.8904 21.508C96.4798 21.9333 96.2744 22.542 96.2744 23.334V30H92.5124V17.724H96.2744V19.264C96.6558 18.7507 97.1544 18.3473 97.7704 18.054C98.3864 17.746 99.0831 17.592 99.8604 17.592C100.784 17.592 101.606 17.79 102.324 18.186C103.058 18.582 103.63 19.1467 104.04 19.88C104.466 19.2053 105.045 18.6553 105.778 18.23C106.512 17.8047 107.311 17.592 108.176 17.592ZM121.39 30.176C120.187 30.176 119.102 29.9193 118.134 29.406C117.18 28.8927 116.425 28.1593 115.868 27.206C115.325 26.2527 115.054 25.138 115.054 23.862C115.054 22.6007 115.332 21.4933 115.889 20.54C116.447 19.572 117.21 18.8313 118.178 18.318C119.146 17.8047 120.231 17.548 121.434 17.548C122.636 17.548 123.722 17.8047 124.69 18.318C125.658 18.8313 126.42 19.572 126.978 20.54C127.535 21.4933 127.814 22.6007 127.814 23.862C127.814 25.1233 127.528 26.238 126.956 27.206C126.398 28.1593 125.628 28.8927 124.646 29.406C123.678 29.9193 122.592 30.176 121.39 30.176ZM121.39 26.92C122.108 26.92 122.717 26.656 123.216 26.128C123.729 25.6 123.986 24.8447 123.986 23.862C123.986 22.8793 123.736 22.124 123.238 21.596C122.754 21.068 122.152 20.804 121.434 20.804C120.7 20.804 120.092 21.068 119.608 21.596C119.124 22.1093 118.882 22.8647 118.882 23.862C118.882 24.8447 119.116 25.6 119.586 26.128C120.07 26.656 120.671 26.92 121.39 26.92ZM137.289 17.592C138.727 17.592 139.871 18.0613 140.721 19C141.587 19.924 142.019 21.2 142.019 22.828V30H138.279V23.334C138.279 22.5127 138.067 21.8747 137.641 21.42C137.216 20.9653 136.644 20.738 135.925 20.738C135.207 20.738 134.635 20.9653 134.209 21.42C133.784 21.8747 133.571 22.5127 133.571 23.334V30H129.809V17.724H133.571V19.352C133.953 18.8093 134.466 18.384 135.111 18.076C135.757 17.7533 136.483 17.592 137.289 17.592ZM156.206 23.664C156.206 24.016 156.184 24.3827 156.14 24.764H147.626C147.684 25.5267 147.926 26.1133 148.352 26.524C148.792 26.92 149.327 27.118 149.958 27.118C150.896 27.118 151.549 26.722 151.916 25.93H155.92C155.714 26.7367 155.34 27.4627 154.798 28.108C154.27 28.7533 153.602 29.2593 152.796 29.626C151.989 29.9927 151.087 30.176 150.09 30.176C148.887 30.176 147.816 29.9193 146.878 29.406C145.939 28.8927 145.206 28.1593 144.678 27.206C144.15 26.2527 143.886 25.138 143.886 23.862C143.886 22.586 144.142 21.4713 144.656 20.518C145.184 19.5647 145.917 18.8313 146.856 18.318C147.794 17.8047 148.872 17.548 150.09 17.548C151.278 17.548 152.334 17.7973 153.258 18.296C154.182 18.7947 154.9 19.506 155.414 20.43C155.942 21.354 156.206 22.432 156.206 23.664ZM152.356 22.674C152.356 22.0287 152.136 21.5153 151.696 21.134C151.256 20.7527 150.706 20.562 150.046 20.562C149.415 20.562 148.88 20.7453 148.44 21.112C148.014 21.4787 147.75 21.9993 147.648 22.674H152.356ZM170.73 17.724L163.03 35.83H158.982L161.798 29.582L156.804 17.724H161.006L163.844 25.402L166.66 17.724H170.73Z" fill="white"/>
<defs>
<clipPath id="clip0_6_4">
<rect width="27.4286" height="27.4286" fill="white" transform="translate(5.85718 6.85712)"/>
</clipPath>
</defs>
</svg>
